<?xml version="1.0" standalone="no"?><!DOCTYPE svg PUBLIC "-//W3C//DTD SVG 1.1//EN" "http://www.w3.org/Graphics/SVG/1.1/DTD/svg11.dtd"><svg t="1682430405141" class="icon" viewBox="0 0 1028 1024" version="1.1" xmlns="http://www.w3.org/2000/svg" p-id="1813" xmlns:xlink="http://www.w3.org/1999/xlink" width="200.78125" height="200"><path d="M1025.125727 933.770796L934.896523 1024l-135.056654-135.056654a496.292525 496.292525 0 1 1 90.229203-90.229204zM897.503091 497.556627A398.820737 398.820737 0 1 0 498.682354 896.377364 399.267416 399.267416 0 0 0 897.503091 497.556627z m-213.991255-35.319564l-297.935043 297.839326-45.114602-45.114602 121.911523-121.879617-77.115978-77.147883-137.704824 137.73673-45.114602-45.114602 182.819426-182.851332 122.23058 122.262485 176.02352-175.991614 137.832447 137.928163L776.261587 554.986813zM383.183868 377.910406A55.834903 55.834903 0 1 1 439.018772 322.075503a55.834903 55.834903 0 0 1-55.834904 55.834903z" fill="#ffffff" p-id="1814"></path></svg>